<svg id="Layer_1" data-name="Layer 1" xmlns="http://www.w3.org/2000/svg" viewBox="0 0 397.19 83.8"><defs><style>.cls-1{fill:#f79f9c;}.cls-2{fill:#f47646;}</style></defs><path class="cls-1" d="M78.79,48.43c0-17.14,11.54-30.32,28.34-30.32,16.56,0,28.34,13.59,28.34,30.32,0,17.05-11.45,30.32-28.34,30.32C90.41,78.75,78.79,65.48,78.79,48.43Zm43.83,0c0-10-5.19-18.95-15.49-18.95s-15.48,9-15.48,19,5,18.95,15.48,18.95S122.62,58.48,122.62,48.43Z" transform="translate(-24.17 -18.02)"/><path class="cls-1" d="M270.09,48.43c0-17.14,11.53-30.32,28.34-30.32,16.56,0,28.34,13.59,28.34,30.32,0,17.05-11.45,30.32-28.34,30.32C281.71,78.75,270.09,65.48,270.09,48.43Zm43.83,0c0-10-5.19-18.95-15.49-18.95s-15.49,9-15.49,19,5,18.95,15.49,18.95S313.92,58.48,313.92,48.43Z" transform="translate(-24.17 -18.02)"/><path class="cls-1" d="M364.67,48.43c0-17.14,11.54-30.32,28.35-30.32,16.56,0,28.34,13.59,28.34,30.32,0,17.05-11.46,30.32-28.34,30.32C376.29,78.75,364.67,65.48,364.67,48.43Zm43.84,0c0-10-5.2-18.95-15.49-18.95s-15.49,9-15.49,19,5,18.95,15.49,18.95S408.51,58.48,408.51,48.43Z" transform="translate(-24.17 -18.02)"/><path class="cls-1" d="M362.35,87.86a14.07,14.07,0,0,1-14.33,14c-7.91,0-14.39-5.91-14.39-14Z" transform="translate(-24.17 -18.02)"/><path class="cls-2" d="M74.17,72.32c0,4.12-2.64,6.43-6.18,6.43s-6.18-2.31-6.18-6.43V43.57C61.81,36,57,30,49.12,30c-7.49,0-12.6,6.34-12.6,13.59V72.32c0,4.12-2.63,6.43-6.18,6.43s-6.17-2.31-6.17-6.43V42.91c0-13.84,11.36-24.3,24.95-24.3,13.76,0,25.05,10.3,25.05,24.3Z" transform="translate(-24.17 -18.02)"/><path class="cls-2" d="M225.1,25.28c0-4,2.72-6.18,6.51-6.18h15.82c8.56,0,15.48,5.77,15.48,14.5,0,5.76-2.38,9.64-7.66,12.11v.17a14.34,14.34,0,0,1,12.53,14c0,11.62-7.75,17.88-19.12,17.88h-17c-3.79,0-6.59-2.39-6.59-6.26Zm12.36,17h6.43c4,0,6.67-2.39,6.67-6.51,0-3.87-3.05-5.85-6.67-5.85h-6.43Zm0,24.55h9.72c4.45,0,7.74-2.55,7.74-7.17,0-3.87-3-6.5-8.73-6.5h-8.73Z" transform="translate(-24.17 -18.02)"/><path class="cls-2" d="M332.46,24.45c0-4.12,2.64-6.43,6.18-6.43s6.18,2.31,6.18,6.43V65.8h12.76a5.61,5.61,0,0,1,5.94,5.94,5.78,5.78,0,0,1-5.94,5.43H338.89c-4,0-6.43-2.63-6.43-6.75Z" transform="translate(-24.17 -18.02)"/><path class="cls-2" d="M185.91,71.83c0,4.11-2.64,6.42-6.18,6.42s-6.18-2.31-6.18-6.42V43.08c0-7.59-2.57-13.6-10.4-13.6-7.5,0-10.31,6.34-10.31,13.6V71.83c0,4.11-2.64,6.42-6.19,6.42s-6.17-2.31-6.17-6.42V42.41c0-13.83,9.07-24.3,22.67-24.3,13.76,0,22.76,10.3,22.76,24.3Z" transform="translate(-24.17 -18.02)"/><path class="cls-2" d="M218.84,71.83c0,4.11-2.64,6.42-6.18,6.42s-6.18-2.31-6.18-6.42V43.08c0-7.59-2.57-13.6-10.4-13.6-7.49,0-10.31,6.34-10.31,13.6V71.83c0,4.11-2.64,6.42-6.18,6.42s-6.18-2.31-6.18-6.42V42.41c0-13.83,9.07-24.3,22.67-24.3,13.76,0,22.76,10.3,22.76,24.3Z" transform="translate(-24.17 -18.02)"/><path class="cls-2" d="M313.92,48.49c0-8.44-3.74-16.14-11.13-18.32-7.06,2.37-10.63,9.92-10.63,18.18,0,8.53,3.63,16.21,11.12,18.34C310.44,64.36,313.92,56.84,313.92,48.49Z" transform="translate(-24.17 -18.02)"/><path class="cls-2" d="M408.51,48.49c0-8.44-3.74-16.14-11.13-18.32-7.07,2.37-10.64,9.92-10.64,18.18,0,8.53,3.64,16.21,11.13,18.34C405,64.36,408.51,56.84,408.51,48.49Z" transform="translate(-24.17 -18.02)"/></svg>