<svg id="Layer_2" data-name="Layer 2" xmlns="http://www.w3.org/2000/svg" viewBox="0 0 397.19 83.8"><defs><style>.cls-1{fill:#f47646;}.cls-2{fill:#5ca9ab;}</style></defs><path class="cls-1" d="M78.79,48.51c0-17.14,11.54-30.32,28.34-30.32,16.56,0,28.34,13.59,28.34,30.32,0,17.05-11.45,30.32-28.34,30.32C90.41,78.83,78.79,65.56,78.79,48.51Zm43.83,0c0-10-5.19-18.95-15.49-18.95s-15.48,9-15.48,19,5,18.94,15.48,18.94S122.62,58.56,122.62,48.51Z" transform="translate(-24.17 -18.1)"/><path class="cls-1" d="M270.09,48.51c0-17.14,11.53-30.32,28.34-30.32,16.56,0,28.34,13.59,28.34,30.32,0,17.05-11.45,30.32-28.34,30.32C281.71,78.83,270.09,65.56,270.09,48.51Zm43.83,0c0-10-5.19-18.95-15.49-18.95s-15.49,9-15.49,19,5,18.94,15.49,18.94S313.92,58.56,313.92,48.51Z" transform="translate(-24.17 -18.1)"/><path class="cls-1" d="M364.67,48.51c0-17.14,11.54-30.32,28.35-30.32,16.56,0,28.34,13.59,28.34,30.32,0,17.05-11.46,30.32-28.34,30.32C376.29,78.83,364.67,65.56,364.67,48.51Zm43.84,0c0-10-5.2-18.95-15.49-18.95s-15.49,9-15.49,19,5,18.94,15.49,18.94S408.51,58.56,408.51,48.51Z" transform="translate(-24.17 -18.1)"/><path class="cls-1" d="M362.35,87.94a14.07,14.07,0,0,1-14.33,14c-7.91,0-14.39-5.92-14.39-14Z" transform="translate(-24.17 -18.1)"/><path class="cls-2" d="M74.17,72.4c0,4.12-2.64,6.43-6.18,6.43s-6.18-2.31-6.18-6.43V43.65c0-7.58-4.85-13.6-12.69-13.6-7.49,0-12.6,6.35-12.6,13.6V72.4c0,4.12-2.63,6.43-6.18,6.43s-6.17-2.31-6.17-6.43V43c0-13.84,11.36-24.31,24.95-24.31C62.88,18.68,74.17,29,74.17,43Z" transform="translate(-24.17 -18.1)"/><path class="cls-2" d="M225.1,25.36c0-4,2.72-6.18,6.51-6.18h15.82c8.56,0,15.48,5.76,15.48,14.5,0,5.76-2.38,9.64-7.66,12.11V46a14.35,14.35,0,0,1,12.53,14c0,11.61-7.75,17.87-19.12,17.87h-17c-3.79,0-6.59-2.38-6.59-6.26Zm12.36,17h6.43c4,0,6.67-2.39,6.67-6.51,0-3.87-3.05-5.85-6.67-5.85h-6.43Zm0,24.55h9.72c4.45,0,7.74-2.56,7.74-7.17,0-3.87-3-6.51-8.73-6.51h-8.73Z" transform="translate(-24.17 -18.1)"/><path class="cls-2" d="M332.46,24.52c0-4.11,2.64-6.42,6.18-6.42s6.18,2.31,6.18,6.42V65.88h12.76a5.61,5.61,0,0,1,5.94,5.94,5.78,5.78,0,0,1-5.94,5.43H338.89c-4,0-6.43-2.63-6.43-6.76Z" transform="translate(-24.17 -18.1)"/><path class="cls-2" d="M185.91,71.9c0,4.12-2.64,6.43-6.18,6.43s-6.18-2.31-6.18-6.43V43.15c0-7.58-2.57-13.59-10.4-13.59-7.5,0-10.31,6.34-10.31,13.59V71.9c0,4.12-2.64,6.43-6.19,6.43s-6.17-2.31-6.17-6.43V42.49c0-13.84,9.07-24.3,22.67-24.3,13.76,0,22.76,10.3,22.76,24.3Z" transform="translate(-24.17 -18.1)"/><path class="cls-2" d="M218.84,71.9c0,4.12-2.64,6.43-6.18,6.43s-6.18-2.31-6.18-6.43V43.15c0-7.58-2.57-13.59-10.4-13.59-7.49,0-10.31,6.34-10.31,13.59V71.9c0,4.12-2.64,6.43-6.18,6.43s-6.18-2.31-6.18-6.43V42.49c0-13.84,9.07-24.3,22.67-24.3,13.76,0,22.76,10.3,22.76,24.3Z" transform="translate(-24.17 -18.1)"/><path class="cls-2" d="M313.92,48.57c0-8.44-3.74-16.15-11.13-18.32-7.06,2.36-10.63,9.92-10.63,18.17,0,8.54,3.63,16.21,11.12,18.35C310.44,64.44,313.92,56.91,313.92,48.57Z" transform="translate(-24.17 -18.1)"/><path class="cls-2" d="M408.51,48.57c0-8.44-3.74-16.15-11.13-18.32-7.07,2.36-10.64,9.92-10.64,18.17,0,8.54,3.64,16.21,11.13,18.35C405,64.44,408.51,56.91,408.51,48.57Z" transform="translate(-24.17 -18.1)"/></svg>