<svg id="Layer_10" data-name="Layer 10" xmlns="http://www.w3.org/2000/svg" viewBox="0 0 1008.56 1008.56"><defs><style>.cls-1{fill:#5ca9ab;}.cls-2{fill:#fff;}.cls-3{fill:#f47646;}</style></defs><circle class="cls-1" cx="504.28" cy="504.28" r="504.28"/><path class="cls-2" d="M751.43,723.92c0,39.71-25.42,61.94-59.57,61.94H329c-34.11,0-59.53-22.23-59.53-61.94V454.19C269.48,320.81,379,220,510,220c132.6,0,241.39,99.27,241.39,234.24Z" transform="translate(-7.18 -8.63)"/><path class="cls-3" d="M681.09,671.11c0,28.1-18,43.86-42.18,43.86s-42.17-15.76-42.17-43.86V474.92c0-51.73-33.16-92.77-86.58-92.77-51.15,0-86,43.3-86,92.77V671.11c0,28.1-18,43.86-42.17,43.86s-42.15-15.76-42.15-43.86V470.41c0-94.44,77.57-165.86,170.33-165.86,93.89,0,170.93,70.29,170.93,165.86Z" transform="translate(-7.18 -8.63)"/></svg>